<svg width="59" height="96" viewBox="0 0 59 96" fill="none" xmlns="http://www.w3.org/2000/svg">
<path d="M53.7491 56.144L55.0493 55.377L53.7491 56.144ZM22.0564 91.2147L22.6883 89.8438L22.0564 91.2147ZM0.987558 80.328C0.205403 80.6166 -0.194697 81.4847 0.093909 82.2668L4.797 95.0127C5.0856 95.7949 5.95362 96.195 6.73578 95.9064C7.51793 95.6178 7.91803 94.7498 7.62942 93.9676L3.4489 82.6379L14.7786 78.4574C15.5608 78.1688 15.9609 77.3007 15.6723 76.5186C15.3836 75.7364 14.5156 75.3363 13.7335 75.6249L0.987558 80.328ZM56.9409 65.2641L55.4462 65.4751L56.9409 65.2641ZM19.7782 1.53419L52.449 56.9111L55.0493 55.377L22.3785 9.6354e-05L19.7782 1.53419ZM22.6883 89.8438L2.14203 80.3733L0.878218 83.1152L21.4245 92.5856L22.6883 89.8438ZM55.4462 65.4751C58.0198 83.7 39.4037 97.5485 22.6883 89.8438L21.4245 92.5856C40.3102 101.291 61.3433 85.6442 58.4356 65.053L55.4462 65.4751ZM52.449 56.9111C54.0007 59.5412 55.0192 62.4513 55.4462 65.4751L58.4356 65.053C57.9532 61.6366 56.8025 58.3487 55.0493 55.377L52.449 56.9111Z" fill="white"/>
</svg>
