<svg width="68" height="89" viewBox="0 0 68 89" fill="none" xmlns="http://www.w3.org/2000/svg">
<path d="M5.69589 24.6234L4.19155 24.525L5.69589 24.6234ZM51.5765 13.5119L50.2838 14.2877L51.5765 13.5119ZM62.838 34.3472C63.6457 34.5491 64.4642 34.0579 64.666 33.2501L67.9551 20.0868C68.1569 19.279 67.6657 18.4606 66.8579 18.2587C66.0502 18.0569 65.2317 18.5481 65.0299 19.3559L62.1063 31.0566L50.4056 28.133C49.5978 27.9311 48.7793 28.4223 48.5775 29.2301C48.3757 30.0379 48.8669 30.8563 49.6747 31.0582L62.838 34.3472ZM8.19242 15.3023L9.54457 15.9689L8.19242 15.3023ZM3.00838 88.7961L7.20023 24.7218L4.19155 24.525L-0.000304224 88.5992L3.00838 88.7961ZM50.2838 14.2877L61.9108 33.6604L64.496 32.1088L52.8691 12.7361L50.2838 14.2877ZM9.54457 15.9689C17.6729 -0.517615 40.8247 -1.47302 50.2838 14.2877L52.8691 12.7361C42.1818 -5.07096 16.024 -3.9915 6.84028 14.6356L9.54457 15.9689ZM7.20023 24.7218C7.39932 21.6785 8.19593 18.7043 9.54457 15.9689L6.84028 14.6356C5.31653 17.7262 4.4165 21.0866 4.19155 24.525L7.20023 24.7218Z" fill="black"/>
</svg>
