<svg width="22" height="22" viewBox="0 0 22 22" fill="none" xmlns="http://www.w3.org/2000/svg">
<path d="M19.7853 6.84733L13.0636 1.62402C12.4737 1.16555 11.7477 0.916625 11.0003 0.916625C10.2529 0.916625 9.52691 1.16555 8.93703 1.62402L2.21407 6.84733C1.81005 7.16123 1.48316 7.56324 1.25839 8.02263C1.03361 8.48203 0.916885 8.98667 0.917127 9.49801V18.5645C0.917127 19.2324 1.18271 19.873 1.65545 20.3453C2.12819 20.8176 2.76936 21.083 3.43792 21.083H18.5627C19.2312 21.083 19.8724 20.8176 20.3451 20.3453C20.8179 19.873 21.0835 19.2324 21.0835 18.5645V9.49801C21.0835 8.46166 20.6045 7.48324 19.7853 6.84733Z" stroke="black" stroke-width="1.78423" stroke-linecap="round" stroke-linejoin="round"/>
</svg>
