<svg width="62" height="34" viewBox="0 0 62 34" fill="none" xmlns="http://www.w3.org/2000/svg">
<path d="M46.027 13.7843L47.3258 12.9997L46.027 13.7843ZM56.846 33.7697C57.6596 33.9706 58.4819 33.4738 58.6827 32.6602L61.9554 19.4017C62.1562 18.5881 61.6594 17.7658 60.8458 17.5649C60.0322 17.3641 59.2099 17.8609 59.009 18.6745L56.1 30.4598L44.3148 27.5508C43.5011 27.35 42.6788 27.8467 42.478 28.6603C42.2771 29.4739 42.7739 30.2963 43.5875 30.4971L56.846 33.7697ZM44.7282 14.5688L55.9108 33.0811L58.5084 31.512L47.3258 12.9997L44.7282 14.5688ZM2.73877 16.623C10.931 -0.526761 34.9011 -1.69942 44.7282 14.5688L47.3258 12.9997C36.2499 -5.3359 9.23367 -4.01422 0.000404509 15.315L2.73877 16.623Z" fill="black"/>
</svg>
