<svg width="59" height="33" viewBox="0 0 59 33" fill="none" xmlns="http://www.w3.org/2000/svg">
<path d="M21.2999 27.3376L20.6652 28.7249L21.2999 27.3376ZM0.993824 16.8618C0.204194 17.1557 -0.197646 18.0341 0.09628 18.8238L4.88615 31.6915C5.18008 32.4812 6.05848 32.883 6.84811 32.5891C7.63774 32.2951 8.03958 31.4167 7.74565 30.6271L3.48799 19.1891L14.926 14.9314C15.7156 14.6375 16.1175 13.7591 15.8235 12.9695C15.5296 12.1799 14.6512 11.778 13.8616 12.0719L0.993824 16.8618ZM21.9346 25.9503L2.16069 16.9042L0.891373 19.6789L20.6652 28.7249L21.9346 25.9503ZM55.6537 0.464153C58.5604 19.3507 39.3114 33.8997 21.9346 25.9503L20.6652 28.7249C40.2504 37.6846 61.9454 21.2867 58.6694 2.97077e-05L55.6537 0.464153Z" fill="white"/>
</svg>
